<svg id="iconmonstr" xmlns="http://www.w3.org/2000/svg" viewBox="0 0 24 20"><defs><style>.cls-1{fill:#fff;}</style></defs><title>rematricula</title><path id="id-card-19" class="cls-1" d="M13.84,14.31A6.19,6.19,0,0,0,13.18,16H4v-.42c0-1.11,0-1.74,1.32-2s2.79-.61,2.13-1.84C5.47,8.06,6.88,6,9,6s3.52,2,1.56,5.7c-.65,1.22.68,1.51,2.12,1.84A1.49,1.49,0,0,1,13.84,14.31ZM13,18H2V4H22v7.5a6.39,6.39,0,0,1,2,1.32V2H0V20H13.5A6.36,6.36,0,0,1,13,18Zm7-9H16v2h4ZM16,8h4V6H16Zm3.5,5A4.5,4.5,0,1,0,24,17.5,4.49,4.49,0,0,0,19.5,13ZM19,19.48l-1.69-1.63.7-.7,1,.94,2.12-2.17.69.7Z" transform="translate(0 -2)"/></svg>