<svg xmlns="http://www.w3.org/2000/svg" width="30" height="30.392" viewBox="0 0 30 30.392">
  <g id="Grupo_6" data-name="Grupo 6" transform="translate(-963.5 -398)">
    <g id="Grupo_4" data-name="Grupo 4" transform="translate(-149.5 -131)">
      <g id="Grupo_3" data-name="Grupo 3" transform="translate(1113 529)">
        <path id="Caminho_5" data-name="Caminho 5" d="M469.844,460.091v-4.966H446.86v17.033a1.175,1.175,0,0,0,1.162,1.181H460.2a8.872,8.872,0,0,0,7.761,4.617,9.049,9.049,0,0,0,1.882-17.865Zm-16.161,8.553h-3.74v-3.7h3.74Zm0-6.358h-3.74v-3.7h3.74Zm2.8-3.7h3.74v3.7h-3.74Zm11.479,16.846a6.512,6.512,0,1,1,6.413-6.511A6.47,6.47,0,0,1,467.962,475.432Z" transform="translate(-446.86 -447.564)" fill="#fff"/>
        <path id="Caminho_6" data-name="Caminho 6" d="M499.856,481.766l-3.714,4.821-2.643-2.322-1.461,1.663,4.416,3.882,5.155-6.692Z" transform="translate(-475.502 -464.181)" fill="#fff"/>
        <path id="Caminho_7" data-name="Caminho 7" d="M470.2,439.132a1.184,1.184,0,0,0-1.181-1.18H467.76V437a1.975,1.975,0,1,0-3.95,0v.947H453.5V437a1.975,1.975,0,1,0-3.95,0v.947H448.04a1.184,1.184,0,0,0-1.18,1.18v2.13H470.2Z" transform="translate(-446.86 -435.029)" fill="#fff"/>
      </g>
    </g>
  </g>
</svg>
