<svg id="iconmonstr" xmlns="http://www.w3.org/2000/svg" viewBox="0 0 24 24"><defs><style>.cls-1{fill:#fff;}</style></defs><title>financeiro</title><path id="coin-2" class="cls-1" d="M12,2A10,10,0,1,1,2,12,10,10,0,0,1,12,2Zm0-2A12,12,0,1,0,24,12,12,12,0,0,0,12,0Zm4,14.08c0-2.14-2.23-2.74-3.94-3.54-1-.54-.91-1.83.58-1.92a6.42,6.42,0,0,1,2.44.47l.36-1.65A9.06,9.06,0,0,0,13,7V6H12V7.07c-1.94.26-3,1.48-3,2.85,0,2.43,2.84,2.81,3.77,3.24,1.27.57,1,1.75-.11,2a6.09,6.09,0,0,1-3.23-.54L9,16.28A7,7,0,0,0,12,17v1h1V17C14.66,16.71,16,15.8,16,14.08Z"/></svg>