<svg xmlns="http://www.w3.org/2000/svg" width="35" height="35" viewBox="0 0 35 35">
  <g id="Grupo_4" data-name="Grupo 4" transform="translate(-357 -202)">
    <path id="Caminho_2190" data-name="Caminho 2190" d="M22.413,31.325a1.728,1.728,0,0,1-1.309-.6l-5.973-6.9a1.684,1.684,0,0,1-.254-1.812,1.728,1.728,0,0,1,1.561-.983h2.373V15.962a1.709,1.709,0,0,1,1.718-1.7H24.3a1.709,1.709,0,0,1,1.718,1.7v5.071h2.374a1.727,1.727,0,0,1,1.56.983,1.683,1.683,0,0,1-.253,1.812l-5.976,6.9a1.722,1.722,0,0,1-1.305.595M21.7,29.039h0Zm1.414,0,0,0,0,0m-4.67-5.4,3.965,4.58,3.963-4.58H25.084a1.709,1.709,0,0,1-1.718-1.694V16.875H21.458v5.072a1.708,1.708,0,0,1-1.717,1.694Zm9.939,0h0Z" transform="translate(361.895 203.311)" fill="#fff"/>
    <path id="Caminho_2191" data-name="Caminho 2191" d="M6.681,9.371H1.5a1.482,1.482,0,1,1,0-2.964H6.471V1.482a1.5,1.5,0,0,1,3.008,0V6.607a2.785,2.785,0,0,1-2.8,2.763" transform="translate(358.065 204)" fill="#fff"/>
    <path id="Caminho_2192" data-name="Caminho 2192" d="M22.911,35H5.153A4.989,4.989,0,0,1,0,30.2V8.466A2.789,2.789,0,0,1,.9,6.436L6.9.845A3.19,3.19,0,0,1,9.091,0H24.168a4.99,4.99,0,0,1,5.154,4.8v8.22a1.6,1.6,0,0,1-3.2,0V4.8a1.9,1.9,0,0,0-1.957-1.832H9.091L3.169,8.528,3.2,30.2a1.9,1.9,0,0,0,1.956,1.832H22.911a1.486,1.486,0,1,1,0,2.964" transform="translate(357 202)" fill="#fff"/>
    <path id="Caminho_2193" data-name="Caminho 2193" d="M11.9,25.014H5.173a1.494,1.494,0,0,1,0-2.964H11.9a1.494,1.494,0,0,1,0,2.964" transform="translate(358.934 202.136)" fill="#fff"/>
    <path id="Caminho_2194" data-name="Caminho 2194" d="M14.138,28.9H5.173a1.494,1.494,0,0,1,0-2.964h8.964a1.494,1.494,0,0,1,0,2.964" transform="translate(358.934 202.838)" fill="#fff"/>
    <path id="Caminho_2195" data-name="Caminho 2195" d="M16.379,21.123H5.173a1.494,1.494,0,0,1,0-2.964H16.379a1.494,1.494,0,0,1,0,2.964" transform="translate(358.934 201.434)" fill="#fff"/>
    <path id="Caminho_2196" data-name="Caminho 2196" d="M16.379,17.232H5.173a1.4,1.4,0,0,1-1.3-1.482,1.4,1.4,0,0,1,1.3-1.482H16.379a1.4,1.4,0,0,1,1.3,1.482,1.4,1.4,0,0,1-1.3,1.482" transform="translate(358.934 200.732)" fill="#fff"/>
  </g>
</svg>
